<svg xmlns="http://www.w3.org/2000/svg" width="377.637" height="323.899"><path d="M188.358 45.214c6.816-5.742 13.321-11.618 20.239-16.958 10.649-8.22 21.714-15.815 34.256-21.042C256.898 1.36 271.445-.812 286.577.301c12.531.921 24.818 2.971 36.459 7.849 28.011 11.74 45.037 32.78 51.542 62.239 4.175 18.909 4.43 37.873-1.455 56.604-5.025 15.996-13.384 30.177-23.46 43.451-10.138 13.356-22.206 24.876-34.242 36.447-39.024 37.517-78.004 75.08-116.993 112.633-6.064 5.841-13.505 5.839-19.6-.042-43.296-41.772-86.529-83.611-129.932-125.273-13.986-13.425-25.937-28.372-35.254-45.318C6.85 136.538 2.05 123.307.564 109.226c-.807-7.648-.638-15.468-.17-23.165.807-13.278 3.984-26.063 10.106-37.958 11.714-22.76 30.38-36.908 54.834-43.691 13.7-3.8 27.724-5.147 41.852-4.037 16.392 1.287 31.24 7.347 44.976 16.206 12.719 8.203 24.726 17.323 35.499 28.001.268.268.562.51.697.632zm.265 246.306c.414-.384.696-.637.969-.899 38.846-37.433 77.674-74.884 116.549-112.287 11.285-10.858 21.652-22.446 30.17-35.657 14.87-23.061 18.06-47.616 9.831-73.714-5.048-16.007-15.075-27.597-30.482-34.525-9.802-4.407-20.062-6.629-30.735-7.171-5.705-.29-11.405-.498-17.074.583-9.977 1.903-19.15 5.882-27.713 11.166-15.383 9.494-28.862 21.3-40.924 34.738-5.974 6.656-15.177 6.642-21.158-.01-2.629-2.924-5.285-5.839-8.117-8.563-10.812-10.401-22.115-20.208-35.259-27.623-8.322-4.694-17.009-8.737-26.578-9.856-15.094-1.765-29.87-.119-44.037 5.705-13.97 5.743-24.542 15.022-30.496 29.177-3.472 8.255-5.462 16.823-6.369 25.728-1.47 14.418.647 28.178 6.727 41.345C41.79 146.683 53.379 161 66.683 173.934c29.351 28.535 58.918 56.847 88.395 85.252 11.15 10.744 22.296 21.491 33.545 32.334z"/></svg>