<svg xmlns="http://www.w3.org/2000/svg" width="420.976" height="59.109"><path d="M212.117 29.509c.02-14.535 10.393-26.748 24.764-29.017 10.854-1.713 20.44.989 28.108 9.02 14.924 15.632 8.013 41.444-12.765 48.066-13.52 4.309-28.124-.703-35.531-12.192-3.018-4.681-4.584-10.115-4.576-15.877zM242.56 53.94c13.564.042 24.513-10.695 24.561-24.085.05-13.911-10.651-24.709-24.51-24.733-13.675-.023-24.661 10.684-24.708 24.081-.047 13.922 10.69 24.694 24.657 24.737zm66.121 4.34h-5.44V.869c7.41-.028 14.824-.858 22.117.672 4.804 1.008 8.821 3.432 10.855 8.179 2.599 6.066 1.658 14.475-6.387 18.82-.728.394-1.476.751-2.093 1.064 7.563 8.699 12.925 18.889 19.419 28.294.042.061.046.147.121.403-2.055 0-4.062.032-6.065-.038-.268-.009-.564-.504-.769-.824-3.793-5.917-7.557-11.853-11.371-17.757-.908-1.406-1.938-2.74-2.974-4.057-2.078-2.644-4.732-4.28-8.176-4.333-3.033-.046-6.067-.01-9.237-.01V58.28zm.021-31.833c3.409 0 6.685.052 9.959-.024 1.467-.034 2.957-.193 4.386-.519 3.816-.87 6.936-2.704 8.147-6.729 1.808-6.012-1.148-11.257-7.33-12.882-1.758-.462-3.612-.685-5.432-.752-3.22-.118-6.447-.033-9.729-.033l-.001 20.939zM41.628 5.482H2.036V.836h48.499c.269 1.303.005 2.356-.912 3.462C36.329 20.34 23.088 36.424 9.836 52.5c-.225.273-.431.563-.776 1.015h41.762v4.722H.084c-.199-1.039-.076-1.911.671-2.82 13.333-16.216 26.629-32.462 39.93-48.703.271-.331.521-.68.943-1.232zm379.348 52.839c-1.801 0-3.441.062-5.069-.045-.393-.026-.908-.539-1.099-.951a1339.115 1339.115 0 0 1-7.956-17.419c-.396-.885-.871-1.13-1.796-1.126-8.118.036-16.236.038-24.354-.002-.939-.005-1.397.272-1.786 1.141-2.608 5.826-5.294 11.617-7.919 17.436-.321.711-.676 1.035-1.505.99-1.507-.082-3.021-.023-4.694-.023.43-.957.796-1.785 1.172-2.608 8.284-18.102 16.576-36.201 24.835-54.314.393-.861.844-1.243 1.793-1.125.893.111 1.763-.231 2.336 1.03 8.483 18.669 17.034 37.307 25.569 55.953.131.287.256.576.473 1.063zM392.844 9.306l-11.208 24.7h22.5l-11.292-24.7zM128.71 58.322c-1.757 0-3.316-.042-4.871.019-.697.028-.958-.278-1.217-.848-2.671-5.885-5.389-11.748-8.032-17.644-.377-.84-.828-1.07-1.7-1.067-8.157.032-16.314.041-24.471-.01-.986-.006-1.39.365-1.758 1.181-2.607 5.782-5.275 11.536-7.864 17.326-.374.837-.817 1.11-1.699 1.064-1.433-.074-2.873-.02-4.501-.02.186-.459.312-.809.466-1.146C81.581 38.57 90.119 19.973 98.586 1.343c.565-1.242 1.393-.992 2.306-1.067.895-.074 1.409.168 1.82 1.07 8.438 18.511 16.916 37.003 25.384 55.501.195.426.361.865.614 1.475zm-16.805-24.316L100.611 9.307l-11.21 24.699h22.504zm43.1-33.212h5.371v52.741h27.809v4.727h-33.181l.001-57.468z" fill="#FFF"/></svg>