<svg xmlns="http://www.w3.org/2000/svg" width="200.038" height="140.841" viewBox="0 -12.767 200.038 140.841"><path fill="#FFF" d="M0-8.153c3.396-3.514 8.956-4.628 16.605-4.614 56.487.111 112.975.052 169.463.069 10.421.003 16.88 4.594 12.663 8.986-2.416 2.516-6.628 3.659-12.143 3.654-13.997-.013-27.994-.004-41.991-.004-42.658 0-85.316-.066-127.972.061C8.973.023 3.386-1.081 0-4.612v-3.541zm0 62.767C3.396 51.1 8.956 49.985 16.605 50c56.487.111 112.975.052 169.463.069 10.421.003 16.88 4.594 12.663 8.986-2.416 2.516-6.628 3.659-12.143 3.654-13.997-.013-27.994-.004-41.991-.004-42.658 0-85.316-.066-127.972.061-7.652.023-13.239-1.08-16.625-4.612v-3.54zm0 65.308c3.396-3.514 8.956-4.628 16.605-4.614 56.487.111 112.975.052 169.463.069 10.421.003 16.88 4.594 12.663 8.986-2.416 2.516-6.628 3.659-12.143 3.654-13.997-.013-27.994-.004-41.991-.004-42.658 0-85.316-.066-127.972.061-7.652.023-13.239-1.08-16.625-4.612v-3.54z"/></svg>