<?xml version="1.0" encoding="utf-8"?>
<!-- Generator: Adobe Illustrator 17.0.0, SVG Export Plug-In . SVG Version: 6.00 Build 0)  -->
<!DOCTYPE svg PUBLIC "-//W3C//DTD SVG 1.1//EN" "http://www.w3.org/Graphics/SVG/1.1/DTD/svg11.dtd">
<svg version="1.1" id="Layer_1" xmlns="http://www.w3.org/2000/svg" xmlns:xlink="http://www.w3.org/1999/xlink" x="0px" y="0px"
	 width="377.637px" height="323.899px" viewBox="0 0 377.637 323.899" enable-background="new 0 0 377.637 323.899"
	 xml:space="preserve">
<g>
	<path fill="#FFFFFF" d="M188.358,45.214c6.816-5.742,13.321-11.618,20.239-16.958c10.649-8.22,21.714-15.815,34.256-21.042
		c14.045-5.854,28.592-8.026,43.724-6.913c12.531,0.921,24.818,2.971,36.459,7.849c28.011,11.74,45.037,32.78,51.542,62.239
		c4.175,18.909,4.43,37.873-1.455,56.604c-5.025,15.996-13.384,30.177-23.46,43.451c-10.138,13.356-22.206,24.876-34.242,36.447
		c-39.024,37.517-78.004,75.08-116.993,112.633c-6.064,5.841-13.505,5.839-19.6-0.042c-43.296-41.772-86.529-83.611-129.932-125.273
		c-13.986-13.425-25.937-28.372-35.254-45.318c-6.792-12.353-11.592-25.584-13.078-39.665c-0.807-7.648-0.638-15.468-0.17-23.165
		c0.807-13.278,3.984-26.063,10.106-37.958c11.714-22.76,30.38-36.908,54.834-43.691c13.7-3.8,27.724-5.147,41.852-4.037
		c16.392,1.287,31.24,7.347,44.976,16.206c12.719,8.203,24.726,17.323,35.499,28.001C187.929,44.85,188.223,45.092,188.358,45.214z
		 M188.623,291.52c0.414-0.384,0.696-0.637,0.969-0.899c38.846-37.433,77.674-74.884,116.549-112.287
		c11.285-10.858,21.652-22.446,30.17-35.657c14.87-23.061,18.06-47.616,9.831-73.714c-5.048-16.007-15.075-27.597-30.482-34.525
		c-9.802-4.407-20.062-6.629-30.735-7.171c-5.705-0.29-11.405-0.498-17.074,0.583c-9.977,1.903-19.15,5.882-27.713,11.166
		c-15.383,9.494-28.862,21.3-40.924,34.738c-5.974,6.656-15.177,6.642-21.158-0.01c-2.629-2.924-5.285-5.839-8.117-8.563
		c-10.812-10.401-22.115-20.208-35.259-27.623c-8.322-4.694-17.009-8.737-26.578-9.856c-15.094-1.765-29.87-0.119-44.037,5.705
		C50.095,39.15,39.523,48.429,33.569,62.584c-3.472,8.255-5.462,16.823-6.369,25.728c-1.47,14.418,0.647,28.178,6.727,41.345
		C41.79,146.683,53.379,161,66.683,173.934c29.351,28.535,58.918,56.847,88.395,85.252
		C166.228,269.93,177.374,280.677,188.623,291.52z"/>
</g>
</svg>
