<?xml version="1.0" encoding="utf-8"?>
<!-- Generator: Adobe Illustrator 18.0.0, SVG Export Plug-In . SVG Version: 6.00 Build 0)  -->
<!DOCTYPE svg PUBLIC "-//W3C//DTD SVG 1.1//EN" "http://www.w3.org/Graphics/SVG/1.1/DTD/svg11.dtd">
<svg version="1.1" id="Layer_1" xmlns="http://www.w3.org/2000/svg" xmlns:xlink="http://www.w3.org/1999/xlink" x="0px" y="0px"
	 viewBox="0 0 16.999 17" enable-background="new 0 0 16.999 17" xml:space="preserve">
<g>
	<path fill="#FFFFFF" d="M16.999,16.045l-4.68-4.742c0.918-1.188,1.469-2.682,1.469-4.316C13.789,3.109,10.719,0,6.895,0
		C3.069,0,0,3.109,0,6.986c0,3.877,3.069,6.986,6.895,6.986c1.727,0,3.296-0.639,4.502-1.691L16.055,17L16.999,16.045z M6.895,1.262
		c3.113,0,5.648,2.569,5.648,5.725c0,3.155-2.536,5.725-5.648,5.725c-3.114,0-5.65-2.569-5.65-5.725
		C1.245,3.831,3.781,1.262,6.895,1.262z"/>
</g>
</svg>
