<?xml version="1.0" encoding="utf-8"?>
<!-- Generator: Adobe Illustrator 17.0.0, SVG Export Plug-In . SVG Version: 6.00 Build 0)  -->
<!DOCTYPE svg PUBLIC "-//W3C//DTD SVG 1.1//EN" "http://www.w3.org/Graphics/SVG/1.1/DTD/svg11.dtd">
<svg version="1.1" id="Layer_1" xmlns="http://www.w3.org/2000/svg" xmlns:xlink="http://www.w3.org/1999/xlink" x="0px" y="0px"
	 width="420.976px" height="59.109px" viewBox="0 0 420.976 59.109" enable-background="new 0 0 420.976 59.109"
	 xml:space="preserve">
<g>
	<path fill="#FFFFFF" d="M212.117,29.509c0.02-14.535,10.393-26.748,24.764-29.017c10.854-1.713,20.44,0.989,28.108,9.02
		c14.924,15.632,8.013,41.444-12.765,48.066c-13.52,4.309-28.124-0.703-35.531-12.192C213.675,40.705,212.109,35.271,212.117,29.509
		z M242.56,53.94c13.564,0.042,24.513-10.695,24.561-24.085c0.05-13.911-10.651-24.709-24.51-24.733
		c-13.675-0.023-24.661,10.684-24.708,24.081C217.856,43.125,228.593,53.897,242.56,53.94z"/>
	<path fill="#FFFFFF" d="M308.681,58.28c-1.934,0-3.644,0-5.44,0c0-19.165,0-38.288,0-57.411c7.41-0.028,14.824-0.858,22.117,0.672
		c4.804,1.008,8.821,3.432,10.855,8.179c2.599,6.066,1.658,14.475-6.387,18.82c-0.728,0.394-1.476,0.751-2.093,1.064
		c7.563,8.699,12.925,18.889,19.419,28.294c0.042,0.061,0.046,0.147,0.121,0.403c-2.055,0-4.062,0.032-6.065-0.038
		c-0.268-0.009-0.564-0.504-0.769-0.824c-3.793-5.917-7.557-11.853-11.371-17.757c-0.908-1.406-1.938-2.74-2.974-4.057
		c-2.078-2.644-4.732-4.28-8.176-4.333c-3.033-0.046-6.067-0.01-9.237-0.01C308.681,40.243,308.681,49.212,308.681,58.28z
		 M308.702,26.447c3.409,0,6.685,0.052,9.959-0.024c1.467-0.034,2.957-0.193,4.386-0.519c3.816-0.87,6.936-2.704,8.147-6.729
		c1.808-6.012-1.148-11.257-7.33-12.882c-1.758-0.462-3.612-0.685-5.432-0.752c-3.22-0.118-6.447-0.033-9.729-0.033
		C308.702,12.522,308.702,19.416,308.702,26.447z"/>
	<path fill="#FFFFFF" d="M41.628,5.482c-13.337,0-26.412,0-39.592,0c0-1.551,0-3.047,0-4.646c16.112,0,32.281,0,48.499,0
		c0.269,1.303,0.005,2.356-0.912,3.462C36.329,20.34,23.088,36.424,9.836,52.5c-0.225,0.273-0.431,0.563-0.776,1.015
		c13.993,0,27.831,0,41.762,0c0,1.644,0,3.14,0,4.722c-16.878,0-33.775,0-50.738,0c-0.199-1.039-0.076-1.911,0.671-2.82
		C14.088,39.201,27.384,22.955,40.685,6.714C40.956,6.383,41.206,6.034,41.628,5.482z"/>
	<path fill="#FFFFFF" d="M420.976,58.321c-1.801,0-3.441,0.062-5.069-0.045c-0.393-0.026-0.908-0.539-1.099-0.951
		c-2.687-5.79-5.352-11.591-7.956-17.419c-0.396-0.885-0.871-1.13-1.796-1.126c-8.118,0.036-16.236,0.038-24.354-0.002
		c-0.939-0.005-1.397,0.272-1.786,1.141c-2.608,5.826-5.294,11.617-7.919,17.436c-0.321,0.711-0.676,1.035-1.505,0.99
		c-1.507-0.082-3.021-0.023-4.694-0.023c0.43-0.957,0.796-1.785,1.172-2.608c8.284-18.102,16.576-36.201,24.835-54.314
		c0.393-0.861,0.844-1.243,1.793-1.125c0.893,0.111,1.763-0.231,2.336,1.03c8.483,18.669,17.034,37.307,25.569,55.953
		C420.634,57.545,420.759,57.834,420.976,58.321z M392.844,9.306c-3.813,8.402-7.483,16.49-11.208,24.7c7.563,0,14.936,0,22.5,0
		C400.384,25.799,396.68,17.697,392.844,9.306z"/>
	<path fill="#FFFFFF" d="M128.71,58.322c-1.757,0-3.316-0.042-4.871,0.019c-0.697,0.028-0.958-0.278-1.217-0.848
		c-2.671-5.885-5.389-11.748-8.032-17.644c-0.377-0.84-0.828-1.07-1.7-1.067c-8.157,0.032-16.314,0.041-24.471-0.01
		c-0.986-0.006-1.39,0.365-1.758,1.181c-2.607,5.782-5.275,11.536-7.864,17.326c-0.374,0.837-0.817,1.11-1.699,1.064
		c-1.433-0.074-2.873-0.02-4.501-0.02c0.186-0.459,0.312-0.809,0.466-1.146C81.581,38.57,90.119,19.973,98.586,1.343
		c0.565-1.242,1.393-0.992,2.306-1.067c0.895-0.074,1.409,0.168,1.82,1.07c8.438,18.511,16.916,37.003,25.384,55.501
		C128.291,57.273,128.457,57.712,128.71,58.322z M111.905,34.006c-3.764-8.231-7.475-16.347-11.294-24.699
		c-3.799,8.371-7.481,16.482-11.21,24.699C96.983,34.006,104.356,34.006,111.905,34.006z"/>
	<path fill="#FFFFFF" d="M155.005,0.794c1.816,0,3.523,0,5.371,0c0,17.585,0,35.113,0,52.741c9.324,0,18.507,0,27.809,0
		c0,1.619,0,3.142,0,4.727c-11.043,0-22.064,0-33.181,0C155.005,39.128,155.005,20.002,155.005,0.794z"/>
</g>
</svg>
