<?xml version="1.0" encoding="utf-8"?>
<!-- Generator: Adobe Illustrator 17.0.0, SVG Export Plug-In . SVG Version: 6.00 Build 0)  -->
<!DOCTYPE svg PUBLIC "-//W3C//DTD SVG 1.1//EN" "http://www.w3.org/Graphics/SVG/1.1/DTD/svg11.dtd">
<svg version="1.1" id="Layer_1" xmlns="http://www.w3.org/2000/svg" xmlns:xlink="http://www.w3.org/1999/xlink" x="0px" y="0px"
	 width="200.038px" height="140.841px" viewBox="0 -12.767 200.038 140.841" enable-background="new 0 -12.767 200.038 140.841"
	 xml:space="preserve">
<g>
	<path fill="#FFFFFF" d="M0-8.153c3.396-3.514,8.956-4.628,16.605-4.614c56.487,0.111,112.975,0.052,169.463,0.069
		c10.421,0.003,16.88,4.594,12.663,8.986c-2.416,2.516-6.628,3.659-12.143,3.654c-13.997-0.013-27.994-0.004-41.991-0.004
		c-42.658,0-85.316-0.066-127.972,0.061C8.973,0.023,3.386-1.081,0-4.612C0-5.792,0-6.973,0-8.153z"/>
</g>
<g>
	<path fill="#FFFFFF" d="M0,54.614C3.396,51.1,8.956,49.985,16.605,50c56.487,0.111,112.975,0.052,169.463,0.069
		c10.421,0.003,16.88,4.594,12.663,8.986c-2.416,2.516-6.628,3.659-12.143,3.654c-13.997-0.013-27.994-0.004-41.991-0.004
		c-42.658,0-85.316-0.066-127.972,0.061C8.973,62.789,3.386,61.686,0,58.154C0,56.974,0,55.794,0,54.614z"/>
</g>
<g>
	<path fill="#FFFFFF" d="M0,119.922c3.396-3.514,8.956-4.628,16.605-4.614c56.487,0.111,112.975,0.052,169.463,0.069
		c10.421,0.003,16.88,4.594,12.663,8.986c-2.416,2.516-6.628,3.659-12.143,3.654c-13.997-0.013-27.994-0.004-41.991-0.004
		c-42.658,0-85.316-0.066-127.972,0.061c-7.652,0.023-13.239-1.08-16.625-4.612C0,122.282,0,121.102,0,119.922z"/>
</g>
</svg>
